#!OML:ASF E:\emotionWalksFemale\Project 1\Capture day 1\Session 1\Female1.ASF
:FULLY-SPECIFIED
:DEGREES
1654
root 7.87882 15.2735 -36.8375 4.96707 -65.3808 356.745
lowerback 5.26336 8.94064 7.54074
upperback -3.82584 12.526 -0.67799
thorax -5.19392 5.89154 -5.83952
lowerneck -10.6679 10.7587 8.65485
upperneck -7.50607 13.0184 -13.3862
head 0.972462 6.16163 -4.75977
rclavicle 6.99971e-014 1.59028e-014
rhumerus 12.3323 40.2857 -52.4055
rradius 57.0746
rwrist 9.43398
rhand -1.12457 -51.1452
rfingers 7.12502
rthumb -155.487 -619.596
lclavicle 6.99971e-014 1.59028e-014
lhumerus -55.0993 -2.57181 22.3923
lradius 44.1843
lwrist -1.72919
lhand -5.75765 -33.9779
lfingers 7.12502
lthumb 20.0653 -4.99399
rfemur 1.02121 12.9246 29.5428
rtibia 21.5855
rfoot -21.7444 -23.664
rtoes -6.38156
lfemur -26.8495 -28.6715 -11.8584
ltibia 31.1134
lfoot -27.5011 -8.86992
ltoes -47.4599
1655
root 7.91293 15.2997 -36.8558 4.76016 -64.4167 357.182
lowerback 5.12574 8.89329 7.60959
upperback -3.81451 12.4638 -0.476408
thorax -5.14461 5.86321 -5.64211
lowerneck -10.5473 10.6205 8.50973
upperneck -7.51561 12.8597 -13.2846
head 0.917424 6.09297 -4.72739
rclavicle -6.02566e-014 -9.14409e-015
rhumerus 12.4533 41.6274 -51.9145
rradius 58.3293
rwrist 9.06996
rhand -0.969675 -50.2864
rfingers 7.12502
rthumb -155.339 -618.717
lclavicle -6.02566e-014 -9.14409e-015
lhumerus -56.7234 -2.84961 23.6141
lradius 43.8217
lwrist -2.127
lhand -5.02255 -36.059
lfingers 7.12502
lthumb 20.7717 -7.15074
rfemur 0.788015 12.7645 29.4218
rtibia 21.3258
rfoot -21.347 -24.1435
rtoes -4.91729
lfemur -27.4628 -30.0861 -11.199
ltibia 30.9272
lfoot -26.488 -10.1047
ltoes -32.5677
1656
root 7.9503 15.2956 -36.8761 5.00687 -63.3554 357.529
lowerback 4.52487 8.84919 7.79119
upperback -3.81694 12.3648 -0.391346
thorax -4.80531 5.82846 -5.53402
lowerneck -10.6546 10.5513 8.37906
upperneck -7.51956 12.7749 -13.1017
head 0.900483 6.05235 -4.65645
rclavicle 8.04581e-014 2.34566e-014
rhumerus 12.4162 42.8844 -51.3345
rradius 59.9709
rwrist 8.71894
rhand -0.977876 -49.9817
rfingers 7.12502
rthumb -155.347 -618.414
lclavicle 8.04581e-014 2.34566e-014
lhumerus -58.1741 -2.87866 24.7466
lradius 43.6016
lwrist -2.47075
lhand -5.04727 -36.9196
lfingers 7.12502
lthumb 20.748 -8.00875
rfemur 0.0955156 12.6486 29.3102
rtibia 21.2119
rfoot -21.2432 -23.9028
rtoes -1.78111
lfemur -28.0805 -29.1578 -11.3097
ltibia 30.6651
lfoot -28.2416 -3.73365
ltoes -47.5006
1657
root 7.99353 15.3015 -36.9049 4.6079 -61.9908 358.02
lowerback 4.60939 8.64577 7.92383
upperback -3.7429 12.111 -0.29664
thorax -4.80465 5.70016 -5.50773
lowerneck -10.7338 10.5617 8.26261
upperneck -7.59142 12.793 -12.7027
head 0.851903 6.06602 -4.51985
rclavicle -3.98066e-014 -1.98785e-015
rhumerus 12.3542 43.9329 -51.1634
rradius 61.2415
rwrist 8.66157
rhand -1.22325 -47.9158
rfingers 7.12502
rthumb -155.582 -616.38
lclavicle -3.98066e-014 -1.98785e-015
lhumerus -59.6651 -2.99455 25.9396
lradius 43.5391
lwrist -2.69776
lhand -5.67602 -36.7906
lfingers 7.12502
lthumb 20.1438 -7.81493
rfemur -0.0341025 12.5255 29.3136
rtibia 21.1229
rfoot -21.3592 -24.51
rtoes 0.0556175
lfemur -28.3354 -28.7018 -11.6163
ltibia 30.4508
lfoot -28.4344 -0.381335
ltoes -50.8567
1658
root 8.0398 15.3073 -36.9396 4.34208 -60.5142 358.472
lowerback 4.68402 8.4852 7.80233
upperback -3.77237 11.9052 -0.107132
thorax -4.97076 5.59392 -5.26683
lowerneck -10.5585 10.4277 8.0806
upperneck -7.60297 12.6502 -12.4348
head 0.774541 6.00966 -4.43414
rclavicle -5.80451e-014 -2.38542e-014
rhumerus 11.9579 44.9284 -50.8803
rradius 62.5142
rwrist 8.80711
rhand 0.158521 -47.5887
rfingers 7.12502
rthumb -154.258 -615.868
lclavicle -5.80451e-014 -2.38542e-014
lhumerus -61.0118 -2.93783 27.1797
lradius 43.2087
lwrist -3.10366
lhand -6.43471 -37.2528
lfingers 7.12502
lthumb 19.4144 -8.20198
rfemur -0.330504 12.5373 29.3402
rtibia 21.152
rfoot -21.58 -25.5704
rtoes 1.99752
lfemur -28.6586 -27.9642 -11.9575
ltibia 30.2234
lfoot -27.8131 1.23024
ltoes -49.6465
